<svg viewBox="0 0 16 16" xmlns="http://www.w3.org/2000/svg">
    <path fill="#AFB1B3"
          d="M 12.19 7.898 C 12.743 8.239 13.163 8.662 13.453 9.158 C 13.74 9.652 13.884 10.207 13.884 10.819 C 13.884 12.257 13.332 13.358 12.228 14.123 C 11.484 14.657 10.478 14.993 9.205 15.136 L 9.13 15.136 C 8.949 15.136 8.803 15.078 8.687 14.964 C 8.533 14.822 8.456 14.657 8.456 14.468 L 8.456 13.093 C 8.456 12.927 8.513 12.778 8.63 12.654 C 8.743 12.524 8.887 12.447 9.052 12.423 C 9.657 12.359 10.124 12.219 10.458 12.002 C 10.714 11.851 10.887 11.652 10.977 11.411 C 11.027 11.27 11.054 11.092 11.054 10.877 C 11.054 10.734 11.027 10.616 10.977 10.512 C 10.927 10.412 10.837 10.316 10.709 10.226 C 10.336 9.97 9.854 9.754 9.264 9.577 L 8.957 9.48 C 8.313 9.305 7.724 9.158 7.185 9.041 C 7.068 9.018 6.883 8.972 6.627 8.91 L 6.413 8.851 C 5.951 8.737 5.466 8.577 4.953 8.372 C 4.194 8.055 3.573 7.655 3.083 7.171 C 2.519 6.609 2.237 5.871 2.237 4.956 C 2.237 3.695 2.726 2.67 3.699 1.88 C 4.369 1.319 5.305 0.963 6.512 0.81 C 6.717 0.785 6.893 0.842 7.04 0.982 C 7.189 1.123 7.263 1.288 7.263 1.478 L 7.263 2.854 C 7.263 3.02 7.213 3.166 7.108 3.294 C 7.005 3.419 6.874 3.494 6.713 3.511 C 6.552 3.534 6.388 3.567 6.222 3.618 C 5.851 3.758 5.586 3.896 5.433 4.03 C 5.279 4.161 5.171 4.298 5.105 4.441 C 5.042 4.656 5.008 4.859 5.008 5.051 C 5.008 5.153 5.067 5.261 5.182 5.375 C 5.362 5.555 5.626 5.712 5.97 5.852 C 6.125 5.915 6.396 6.01 6.779 6.141 L 9.188 6.732 L 9.302 6.77 C 9.907 6.933 10.343 7.063 10.614 7.152 C 11.217 7.356 11.741 7.602 12.19 7.898 Z M 8.974 3.581 C 8.821 3.543 8.697 3.461 8.6 3.343 C 8.505 3.219 8.456 3.078 8.456 2.911 L 8.456 1.517 C 8.456 1.313 8.541 1.141 8.708 1.001 C 8.771 0.939 8.853 0.897 8.957 0.876 C 9.06 0.857 9.155 0.854 9.247 0.869 C 10.374 1.045 11.293 1.427 11.997 2.014 C 12.96 2.801 13.475 3.808 13.537 5.032 C 13.551 5.207 13.488 5.371 13.355 5.519 C 13.222 5.664 13.057 5.738 12.864 5.738 L 11.363 5.738 C 11.196 5.738 11.047 5.681 10.92 5.567 C 10.792 5.452 10.721 5.312 10.709 5.144 C 10.655 4.816 10.547 4.541 10.381 4.326 C 10.11 4.005 9.694 3.767 9.13 3.599 C 9.092 3.599 9.064 3.593 9.052 3.581 L 8.974 3.581 Z M 6.722 12.347 C 6.878 12.372 7.005 12.447 7.108 12.575 C 7.213 12.704 7.263 12.843 7.263 12.996 L 7.263 14.409 C 7.263 14.614 7.185 14.784 7.03 14.924 C 6.904 15.024 6.755 15.078 6.588 15.078 L 6.493 15.078 C 5.298 14.899 4.316 14.512 3.546 13.913 C 2.546 13.124 1.982 12.023 1.851 10.607 C 1.826 10.404 1.883 10.229 2.026 10.084 C 2.167 9.936 2.334 9.864 2.527 9.864 L 4.045 9.864 C 4.226 9.864 4.382 9.924 4.509 10.044 C 4.637 10.166 4.706 10.316 4.721 10.493 C 4.759 11.13 5.074 11.623 5.663 11.966 C 5.932 12.119 6.288 12.245 6.722 12.347 Z"/>
</svg>